<svg width="97" height="39" viewBox="0 0 97 39" fill="none" xmlns="http://www.w3.org/2000/svg">
<path d="M-0.798294 30H6.23296V22.1165L9.04546 18.5653L16.2898 30H24.6989L14.2017 13.892L24.5142 0.909088H16.233L6.61648 13.2102H6.23296V0.909088H-0.798294V30Z" fill="white"/>
<path d="M35.9702 30.4119C41.6946 30.4119 45.4588 27.642 46.2543 23.3523L39.8764 23.1676C39.3509 24.6165 37.9162 25.3977 36.1122 25.3977C33.4276 25.3977 31.794 23.6222 31.794 20.9517V20.767H46.3253V19.0341C46.3253 11.8466 41.9503 7.89773 35.7713 7.89773C29.1804 7.89773 24.9332 12.4148 24.9332 19.1761C24.9332 26.1648 29.1236 30.4119 35.9702 30.4119ZM31.794 16.733C31.8793 14.5597 33.6122 12.9119 35.8991 12.9119C38.1861 12.9119 39.8338 14.5028 39.8764 16.733H31.794Z" fill="white"/>
<path d="M60.267 30.4119C65.9915 30.4119 69.7557 27.642 70.5511 23.3523L64.1733 23.1676C63.6477 24.6165 62.2131 25.3977 60.4091 25.3977C57.7244 25.3977 56.0909 23.6222 56.0909 20.9517V20.767H70.6222V19.0341C70.6222 11.8466 66.2472 7.89773 60.0682 7.89773C53.4773 7.89773 49.2301 12.4148 49.2301 19.1761C49.2301 26.1648 53.4205 30.4119 60.267 30.4119ZM56.0909 16.733C56.1761 14.5597 57.9091 12.9119 60.196 12.9119C62.483 12.9119 64.1307 14.5028 64.1733 16.733H56.0909Z" fill="white"/>
<path d="M87.5043 30.3125C92.3338 30.3125 96.2401 26.5341 96.2259 19.1051C96.2401 11.4062 92.1065 7.89773 87.5469 7.89773C84.1094 7.89773 82.2202 9.91477 81.3679 11.9176H81.1548V8.18182H74.2798V38.1818H81.2259V26.4631H81.3679C82.2344 28.4943 84.1946 30.3125 87.5043 30.3125ZM85.1037 24.9006C82.5611 24.9006 81.0838 22.642 81.0838 19.0909C81.0838 15.5398 82.5611 13.3239 85.1037 13.3239C87.6747 13.3239 89.1094 15.5682 89.0952 19.0909C89.1094 22.642 87.6747 24.9006 85.1037 24.9006Z" fill="white"/>
</svg>
